<mxfile host="app.diagrams.net" modified="2022-11-29T20:19:54.509Z" agent="5.0 (Windows NT 10.0; Win64; x64) AppleWebKit/537.36 (KHTML, like Gecko) Chrome/106.0.0.0 Safari/537.36 OPR/92.0.0.0 (Edition Yx 05)" etag="ia0F5qTf8hGH6UExOcYf" version="20.6.0" type="github">
  <diagram id="C5RBs43oDa-KdzZeNtuy" name="Page-1">
    <mxGraphModel dx="1382" dy="795" grid="1" gridSize="10" guides="1" tooltips="1" connect="1" arrows="1" fold="1" page="1" pageScale="1" pageWidth="827" pageHeight="1169" math="0" shadow="0">
      <root>
        <mxCell id="WIyWlLk6GJQsqaUBKTNV-0" />
        <mxCell id="WIyWlLk6GJQsqaUBKTNV-1" parent="WIyWlLk6GJQsqaUBKTNV-0" />
        <mxCell id="g3OiGSYNtCwcoq03FTMQ-3" value="" style="ellipse;shape=doubleEllipse;whiteSpace=wrap;html=1;aspect=fixed;fillColor=#000000;" parent="WIyWlLk6GJQsqaUBKTNV-1" vertex="1">
          <mxGeometry x="210" y="70" width="30" height="30" as="geometry" />
        </mxCell>
        <mxCell id="g3OiGSYNtCwcoq03FTMQ-4" value="&lt;font style=&quot;font-size: 20px;&quot;&gt;Ввод a&lt;/font&gt;" style="rounded=1;whiteSpace=wrap;html=1;fillColor=none;" parent="WIyWlLk6GJQsqaUBKTNV-1" vertex="1">
          <mxGeometry x="167.5" y="130" width="115" height="50" as="geometry" />
        </mxCell>
        <mxCell id="g3OiGSYNtCwcoq03FTMQ-5" value="" style="rhombus;whiteSpace=wrap;html=1;fontSize=20;fillColor=none;" parent="WIyWlLk6GJQsqaUBKTNV-1" vertex="1">
          <mxGeometry x="192.5" y="240" width="65" height="60" as="geometry" />
        </mxCell>
        <mxCell id="g3OiGSYNtCwcoq03FTMQ-6" value="Неверное значение а" style="rounded=1;whiteSpace=wrap;html=1;fontSize=20;fillColor=none;" parent="WIyWlLk6GJQsqaUBKTNV-1" vertex="1">
          <mxGeometry x="350" y="240" width="120" height="60" as="geometry" />
        </mxCell>
        <mxCell id="g3OiGSYNtCwcoq03FTMQ-7" value="" style="rhombus;whiteSpace=wrap;html=1;fontSize=20;fillColor=none;" parent="WIyWlLk6GJQsqaUBKTNV-1" vertex="1">
          <mxGeometry x="198.63" y="640" width="58.75" height="60" as="geometry" />
        </mxCell>
        <mxCell id="g3OiGSYNtCwcoq03FTMQ-8" value="Ввод значения х" style="rounded=1;whiteSpace=wrap;html=1;fontSize=20;fillColor=none;" parent="WIyWlLk6GJQsqaUBKTNV-1" vertex="1">
          <mxGeometry x="490" y="640" width="120" height="60" as="geometry" />
        </mxCell>
        <mxCell id="g3OiGSYNtCwcoq03FTMQ-9" value="х := 1" style="rounded=1;whiteSpace=wrap;html=1;fontSize=20;fillColor=none;" parent="WIyWlLk6GJQsqaUBKTNV-1" vertex="1">
          <mxGeometry x="168" y="420" width="120" height="60" as="geometry" />
        </mxCell>
        <mxCell id="g3OiGSYNtCwcoq03FTMQ-10" value="eps := 1e-10" style="rounded=1;whiteSpace=wrap;html=1;fontSize=20;fillColor=none;" parent="WIyWlLk6GJQsqaUBKTNV-1" vertex="1">
          <mxGeometry x="168" y="525" width="120" height="60" as="geometry" />
        </mxCell>
        <mxCell id="g3OiGSYNtCwcoq03FTMQ-11" value="" style="endArrow=classic;html=1;rounded=0;fontSize=20;exitX=1;exitY=0.5;exitDx=0;exitDy=0;entryX=0;entryY=0.5;entryDx=0;entryDy=0;" parent="WIyWlLk6GJQsqaUBKTNV-1" source="g3OiGSYNtCwcoq03FTMQ-7" target="g3OiGSYNtCwcoq03FTMQ-8" edge="1">
          <mxGeometry width="50" height="50" relative="1" as="geometry">
            <mxPoint x="270" y="710" as="sourcePoint" />
            <mxPoint x="320" y="660" as="targetPoint" />
          </mxGeometry>
        </mxCell>
        <mxCell id="g3OiGSYNtCwcoq03FTMQ-12" value="math. fabs(x - xp) &amp;gt; eps" style="text;html=1;align=center;verticalAlign=middle;resizable=0;points=[];autosize=1;strokeColor=none;fillColor=none;fontSize=20;" parent="WIyWlLk6GJQsqaUBKTNV-1" vertex="1">
          <mxGeometry x="260" y="630" width="230" height="40" as="geometry" />
        </mxCell>
        <mxCell id="g3OiGSYNtCwcoq03FTMQ-13" value="" style="endArrow=classic;html=1;rounded=0;fontSize=20;exitX=0.5;exitY=1;exitDx=0;exitDy=0;entryX=0.5;entryY=0;entryDx=0;entryDy=0;" parent="WIyWlLk6GJQsqaUBKTNV-1" source="g3OiGSYNtCwcoq03FTMQ-3" target="g3OiGSYNtCwcoq03FTMQ-4" edge="1">
          <mxGeometry width="50" height="50" relative="1" as="geometry">
            <mxPoint x="100" y="170" as="sourcePoint" />
            <mxPoint x="150" y="120" as="targetPoint" />
          </mxGeometry>
        </mxCell>
        <mxCell id="g3OiGSYNtCwcoq03FTMQ-14" value="" style="endArrow=classic;html=1;rounded=0;fontSize=20;exitX=0.5;exitY=1;exitDx=0;exitDy=0;entryX=0.5;entryY=0;entryDx=0;entryDy=0;" parent="WIyWlLk6GJQsqaUBKTNV-1" source="g3OiGSYNtCwcoq03FTMQ-4" target="g3OiGSYNtCwcoq03FTMQ-5" edge="1">
          <mxGeometry width="50" height="50" relative="1" as="geometry">
            <mxPoint x="210" y="240" as="sourcePoint" />
            <mxPoint x="240" y="220" as="targetPoint" />
          </mxGeometry>
        </mxCell>
        <mxCell id="g3OiGSYNtCwcoq03FTMQ-15" value="" style="endArrow=classic;html=1;rounded=0;fontSize=20;exitX=1;exitY=0.5;exitDx=0;exitDy=0;entryX=0;entryY=0.5;entryDx=0;entryDy=0;" parent="WIyWlLk6GJQsqaUBKTNV-1" source="g3OiGSYNtCwcoq03FTMQ-5" target="g3OiGSYNtCwcoq03FTMQ-6" edge="1">
          <mxGeometry width="50" height="50" relative="1" as="geometry">
            <mxPoint x="280" y="320" as="sourcePoint" />
            <mxPoint x="330" y="270" as="targetPoint" />
          </mxGeometry>
        </mxCell>
        <mxCell id="g3OiGSYNtCwcoq03FTMQ-16" value="a &amp;lt; 0" style="text;html=1;align=center;verticalAlign=middle;resizable=0;points=[];autosize=1;strokeColor=none;fillColor=none;fontSize=20;" parent="WIyWlLk6GJQsqaUBKTNV-1" vertex="1">
          <mxGeometry x="260" y="230" width="70" height="40" as="geometry" />
        </mxCell>
        <mxCell id="g3OiGSYNtCwcoq03FTMQ-17" value="" style="endArrow=classic;html=1;rounded=0;fontSize=20;exitX=0.5;exitY=1;exitDx=0;exitDy=0;" parent="WIyWlLk6GJQsqaUBKTNV-1" source="g3OiGSYNtCwcoq03FTMQ-5" edge="1">
          <mxGeometry width="50" height="50" relative="1" as="geometry">
            <mxPoint x="220" y="360" as="sourcePoint" />
            <mxPoint x="225" y="420" as="targetPoint" />
          </mxGeometry>
        </mxCell>
        <mxCell id="g3OiGSYNtCwcoq03FTMQ-18" value="a &amp;gt; 0" style="text;html=1;align=center;verticalAlign=middle;resizable=0;points=[];autosize=1;strokeColor=none;fillColor=none;fontSize=20;" parent="WIyWlLk6GJQsqaUBKTNV-1" vertex="1">
          <mxGeometry x="218" y="330" width="70" height="40" as="geometry" />
        </mxCell>
        <mxCell id="g3OiGSYNtCwcoq03FTMQ-19" value="" style="endArrow=classic;html=1;rounded=0;fontSize=20;exitX=0.5;exitY=1;exitDx=0;exitDy=0;entryX=0.5;entryY=0;entryDx=0;entryDy=0;" parent="WIyWlLk6GJQsqaUBKTNV-1" source="g3OiGSYNtCwcoq03FTMQ-9" target="g3OiGSYNtCwcoq03FTMQ-10" edge="1">
          <mxGeometry width="50" height="50" relative="1" as="geometry">
            <mxPoint x="100" y="470" as="sourcePoint" />
            <mxPoint x="150" y="420" as="targetPoint" />
          </mxGeometry>
        </mxCell>
        <mxCell id="g3OiGSYNtCwcoq03FTMQ-20" value="" style="endArrow=classic;html=1;rounded=0;fontSize=20;exitX=0.5;exitY=1;exitDx=0;exitDy=0;entryX=0.5;entryY=0;entryDx=0;entryDy=0;" parent="WIyWlLk6GJQsqaUBKTNV-1" source="g3OiGSYNtCwcoq03FTMQ-10" target="g3OiGSYNtCwcoq03FTMQ-7" edge="1">
          <mxGeometry width="50" height="50" relative="1" as="geometry">
            <mxPoint x="90" y="670" as="sourcePoint" />
            <mxPoint x="140" y="620" as="targetPoint" />
          </mxGeometry>
        </mxCell>
        <mxCell id="g3OiGSYNtCwcoq03FTMQ-21" value="xp = x" style="rounded=1;whiteSpace=wrap;html=1;fontSize=20;fillColor=none;" parent="WIyWlLk6GJQsqaUBKTNV-1" vertex="1">
          <mxGeometry x="168" y="760" width="120" height="60" as="geometry" />
        </mxCell>
        <mxCell id="g3OiGSYNtCwcoq03FTMQ-22" value="x = (x + a / x) / 2" style="rounded=1;whiteSpace=wrap;html=1;fontSize=20;fillColor=none;" parent="WIyWlLk6GJQsqaUBKTNV-1" vertex="1">
          <mxGeometry x="153" y="880" width="150" height="60" as="geometry" />
        </mxCell>
        <mxCell id="g3OiGSYNtCwcoq03FTMQ-23" value="" style="endArrow=classic;html=1;rounded=0;fontSize=20;exitX=0.5;exitY=1;exitDx=0;exitDy=0;entryX=0.5;entryY=0;entryDx=0;entryDy=0;" parent="WIyWlLk6GJQsqaUBKTNV-1" source="g3OiGSYNtCwcoq03FTMQ-7" target="g3OiGSYNtCwcoq03FTMQ-21" edge="1">
          <mxGeometry width="50" height="50" relative="1" as="geometry">
            <mxPoint x="220" y="760" as="sourcePoint" />
            <mxPoint x="270" y="710" as="targetPoint" />
          </mxGeometry>
        </mxCell>
        <mxCell id="g3OiGSYNtCwcoq03FTMQ-24" value="" style="endArrow=classic;html=1;rounded=0;fontSize=20;exitX=0.5;exitY=1;exitDx=0;exitDy=0;" parent="WIyWlLk6GJQsqaUBKTNV-1" source="g3OiGSYNtCwcoq03FTMQ-21" edge="1">
          <mxGeometry width="50" height="50" relative="1" as="geometry">
            <mxPoint x="250" y="690" as="sourcePoint" />
            <mxPoint x="228" y="880" as="targetPoint" />
          </mxGeometry>
        </mxCell>
        <mxCell id="g3OiGSYNtCwcoq03FTMQ-25" value="" style="endArrow=none;html=1;rounded=0;fontSize=20;entryX=0;entryY=0.5;entryDx=0;entryDy=0;" parent="WIyWlLk6GJQsqaUBKTNV-1" target="g3OiGSYNtCwcoq03FTMQ-22" edge="1">
          <mxGeometry width="50" height="50" relative="1" as="geometry">
            <mxPoint x="90" y="910" as="sourcePoint" />
            <mxPoint x="150" y="820" as="targetPoint" />
          </mxGeometry>
        </mxCell>
        <mxCell id="g3OiGSYNtCwcoq03FTMQ-26" value="" style="endArrow=none;html=1;rounded=0;fontSize=20;" parent="WIyWlLk6GJQsqaUBKTNV-1" edge="1">
          <mxGeometry width="50" height="50" relative="1" as="geometry">
            <mxPoint x="90" y="910" as="sourcePoint" />
            <mxPoint x="90" y="670" as="targetPoint" />
          </mxGeometry>
        </mxCell>
        <mxCell id="g3OiGSYNtCwcoq03FTMQ-27" value="" style="endArrow=classic;html=1;rounded=0;fontSize=20;entryX=0;entryY=0.5;entryDx=0;entryDy=0;" parent="WIyWlLk6GJQsqaUBKTNV-1" target="g3OiGSYNtCwcoq03FTMQ-7" edge="1">
          <mxGeometry width="50" height="50" relative="1" as="geometry">
            <mxPoint x="90" y="670" as="sourcePoint" />
            <mxPoint x="300" y="640" as="targetPoint" />
          </mxGeometry>
        </mxCell>
        <mxCell id="g3OiGSYNtCwcoq03FTMQ-28" value="math. fabs(x - xp) &amp;lt; eps" style="text;html=1;align=center;verticalAlign=middle;resizable=0;points=[];autosize=1;strokeColor=none;fillColor=none;fontSize=20;" parent="WIyWlLk6GJQsqaUBKTNV-1" vertex="1">
          <mxGeometry x="230" y="700" width="230" height="40" as="geometry" />
        </mxCell>
        <mxCell id="PELkJ7h09qXmE4n1BCDy-1" value="" style="ellipse;shape=doubleEllipse;whiteSpace=wrap;html=1;aspect=fixed;fillStyle=auto;fillColor=none;" vertex="1" parent="WIyWlLk6GJQsqaUBKTNV-1">
          <mxGeometry x="525" y="760" width="50" height="50" as="geometry" />
        </mxCell>
        <mxCell id="PELkJ7h09qXmE4n1BCDy-2" value="" style="endArrow=classic;html=1;rounded=0;exitX=0.5;exitY=1;exitDx=0;exitDy=0;entryX=0.5;entryY=0;entryDx=0;entryDy=0;" edge="1" parent="WIyWlLk6GJQsqaUBKTNV-1" source="g3OiGSYNtCwcoq03FTMQ-8" target="PELkJ7h09qXmE4n1BCDy-1">
          <mxGeometry width="50" height="50" relative="1" as="geometry">
            <mxPoint x="660" y="740" as="sourcePoint" />
            <mxPoint x="710" y="690" as="targetPoint" />
          </mxGeometry>
        </mxCell>
      </root>
    </mxGraphModel>
  </diagram>
</mxfile>
